<mxfile host="app.diagrams.net" modified="2024-03-15T14:50:38.561Z" agent="Mozilla/5.0 (Windows NT 10.0; Win64; x64; rv:123.0) Gecko/20100101 Firefox/123.0" version="24.0.7" etag="Hg0_DFf4HSpNGXPLwPR1" type="github">
  <diagram name="第 1 页" id="6YtAGA2pLDYQL2xqgKmg">
    <mxGraphModel>
      <root>
        <mxCell id="0" />
        <mxCell id="1" parent="0" />
      </root>
    </mxGraphModel>
  </diagram>
</mxfile>
